M48
; DRILL file {KiCad 9.0.4} date 2025-10-25T01:57:36-0500
; FORMAT={-:-/ absolute / inch / decimal}
; #@! TF.CreationDate,2025-10-25T01:57:36-05:00
; #@! TF.GenerationSoftware,Kicad,Pcbnew,9.0.4
; #@! TF.FileFunction,NonPlated,1,2,NPTH
FMAT,2
INCH
; #@! TA.AperFunction,NonPlated,NPTH,ComponentDrill
T1C0.0669
; #@! TA.AperFunction,NonPlated,NPTH,ComponentDrill
T2C0.1181
%
G90
G05
T1
X3.4951Y-3.5961
X3.4951Y-4.0882
X3.7992Y-4.9386
X3.8291Y-2.4339
X3.9276Y-2.4339
X4.1437Y-2.4339
X4.2421Y-2.4339
X4.3898Y-4.9386
X5.1894Y-2.4331
X5.4846Y-2.4331
X5.7008Y-2.4331
X5.9961Y-2.4331
X6.2992Y-2.4339
X6.5945Y-2.4339
X7.5394Y-2.4339
X7.6378Y-2.4339
X7.8543Y-2.4339
X7.9528Y-2.4339
X8.4898Y-4.1929
X8.4898Y-4.2913
X8.5Y-3.6575
X8.5Y-3.8543
X8.5039Y-2.811
X8.5039Y-2.9094
X8.5039Y-3.1299
X8.5039Y-3.4252
T2
X4.8228Y-3.5551
X4.8228Y-4.9134
X6.7717Y-3.5551
X6.7717Y-4.9134
M30
