%TF.GenerationSoftware,KiCad,Pcbnew,9.0.4*%
%TF.CreationDate,2025-10-25T01:57:36-05:00*%
%TF.ProjectId,ControlsLeader_PCB,436f6e74-726f-46c7-934c-65616465725f,rev?*%
%TF.SameCoordinates,Original*%
%TF.FileFunction,Soldermask,Bot*%
%TF.FilePolarity,Negative*%
%FSLAX46Y46*%
G04 Gerber Fmt 4.6, Leading zero omitted, Abs format (unit mm)*
G04 Created by KiCad (PCBNEW 9.0.4) date 2025-10-25 01:57:36*
%MOMM*%
%LPD*%
G01*
G04 APERTURE LIST*
G04 Aperture macros list*
%AMRoundRect*
0 Rectangle with rounded corners*
0 $1 Rounding radius*
0 $2 $3 $4 $5 $6 $7 $8 $9 X,Y pos of 4 corners*
0 Add a 4 corners polygon primitive as box body*
4,1,4,$2,$3,$4,$5,$6,$7,$8,$9,$2,$3,0*
0 Add four circle primitives for the rounded corners*
1,1,$1+$1,$2,$3*
1,1,$1+$1,$4,$5*
1,1,$1+$1,$6,$7*
1,1,$1+$1,$8,$9*
0 Add four rect primitives between the rounded corners*
20,1,$1+$1,$2,$3,$4,$5,0*
20,1,$1+$1,$4,$5,$6,$7,0*
20,1,$1+$1,$6,$7,$8,$9,0*
20,1,$1+$1,$8,$9,$2,$3,0*%
G04 Aperture macros list end*
%ADD10C,1.700000*%
%ADD11RoundRect,0.250000X-0.850000X-0.600000X0.850000X-0.600000X0.850000X0.600000X-0.850000X0.600000X0*%
%ADD12O,2.200000X1.700000*%
%ADD13RoundRect,0.250000X0.600000X-0.850000X0.600000X0.850000X-0.600000X0.850000X-0.600000X-0.850000X0*%
%ADD14O,1.700000X2.200000*%
%ADD15C,3.000000*%
%ADD16C,3.600000*%
%ADD17C,6.400000*%
%ADD18C,2.780000*%
%ADD19RoundRect,0.250000X-0.600000X-0.600000X0.600000X-0.600000X0.600000X0.600000X-0.600000X0.600000X0*%
%ADD20RoundRect,0.250000X0.600000X0.600000X-0.600000X0.600000X-0.600000X-0.600000X0.600000X-0.600000X0*%
%ADD21RoundRect,0.250000X-0.600000X0.850000X-0.600000X-0.850000X0.600000X-0.850000X0.600000X0.850000X0*%
G04 APERTURE END LIST*
D10*
%TO.C,J11*%
X216000000Y-71400000D03*
X216000000Y-73900000D03*
D11*
X208820000Y-71400000D03*
D12*
X208820000Y-73900000D03*
%TD*%
D10*
%TO.C,J3*%
X105250000Y-61820000D03*
X107750000Y-61820000D03*
D13*
X105250000Y-69000000D03*
D14*
X107750000Y-69000000D03*
%TD*%
D15*
%TO.C,U2*%
X172000000Y-124800000D03*
X172000000Y-90300000D03*
X122500000Y-124800000D03*
X122500000Y-90300000D03*
%TD*%
D10*
%TO.C,J15*%
X160000000Y-61820000D03*
X167500000Y-61820000D03*
D13*
X160000000Y-69000000D03*
D14*
X162500000Y-69000000D03*
X165000000Y-69000000D03*
X167500000Y-69000000D03*
%TD*%
D16*
%TO.C,H1*%
X90000000Y-63000000D03*
D17*
X90000000Y-63000000D03*
%TD*%
D18*
%TO.C,F2*%
X183875000Y-87975000D03*
X183875000Y-91375000D03*
X193795000Y-87975000D03*
X193795000Y-91375000D03*
%TD*%
D10*
%TO.C,J13*%
X199500000Y-61820000D03*
X202000000Y-61820000D03*
D13*
X199500000Y-69000000D03*
D14*
X202000000Y-69000000D03*
%TD*%
D10*
%TO.C,J17*%
X215640000Y-106500000D03*
X215640000Y-109000000D03*
D11*
X208460000Y-106500000D03*
D12*
X208460000Y-109000000D03*
%TD*%
D10*
%TO.C,J8*%
X215900000Y-92900000D03*
X215900000Y-97900000D03*
D19*
X206220000Y-92900000D03*
D10*
X206220000Y-95400000D03*
X206220000Y-97900000D03*
X208720000Y-92900000D03*
X208720000Y-95400000D03*
X208720000Y-97900000D03*
%TD*%
D16*
%TO.C,H4*%
X90000000Y-125000000D03*
D17*
X90000000Y-125000000D03*
%TD*%
D16*
%TO.C,H2*%
X215000000Y-63000000D03*
D17*
X215000000Y-63000000D03*
%TD*%
D10*
%TO.C,J6*%
X88775000Y-103840000D03*
X88775000Y-91340000D03*
D20*
X98455000Y-103840000D03*
D10*
X98455000Y-101340000D03*
X98455000Y-98840000D03*
X98455000Y-96340000D03*
X98455000Y-93840000D03*
X98455000Y-91340000D03*
X95955000Y-103840000D03*
X95955000Y-101340000D03*
X95955000Y-98840000D03*
X95955000Y-96340000D03*
X95955000Y-93840000D03*
X95955000Y-91340000D03*
%TD*%
%TO.C,J9*%
X191500000Y-61820000D03*
X194000000Y-61820000D03*
D13*
X191500000Y-69000000D03*
D14*
X194000000Y-69000000D03*
%TD*%
D18*
%TO.C,F1*%
X123190000Y-73250000D03*
X123190000Y-69850000D03*
X113270000Y-73250000D03*
X113270000Y-69850000D03*
%TD*%
D10*
%TO.C,J12*%
X111500000Y-125440000D03*
X96500000Y-125440000D03*
D21*
X111500000Y-118260000D03*
D14*
X109000000Y-118260000D03*
X106500000Y-118260000D03*
X104000000Y-118260000D03*
X101500000Y-118260000D03*
X99000000Y-118260000D03*
X96500000Y-118260000D03*
%TD*%
D10*
%TO.C,J4*%
X144800000Y-61800000D03*
X152300000Y-61800000D03*
D13*
X144800000Y-68980000D03*
D14*
X147300000Y-68980000D03*
X149800000Y-68980000D03*
X152300000Y-68980000D03*
%TD*%
D10*
%TO.C,J7*%
X216000000Y-79500000D03*
X216000000Y-87000000D03*
D11*
X208820000Y-79500000D03*
D12*
X208820000Y-82000000D03*
X208820000Y-84500000D03*
X208820000Y-87000000D03*
%TD*%
D16*
%TO.C,H3*%
X215000000Y-125000000D03*
D17*
X215000000Y-125000000D03*
%TD*%
D10*
%TO.C,J1*%
X97260000Y-61820000D03*
X99760000Y-61820000D03*
D13*
X97260000Y-69000000D03*
D14*
X99760000Y-69000000D03*
%TD*%
D10*
%TO.C,J2*%
X131810000Y-61800000D03*
X139310000Y-61800000D03*
D13*
X131810000Y-68980000D03*
D14*
X134310000Y-68980000D03*
X136810000Y-68980000D03*
X139310000Y-68980000D03*
%TD*%
M02*
