M48
; DRILL file {KiCad 9.0.4} date 2025-10-25T01:57:36-0500
; FORMAT={-:-/ absolute / inch / decimal}
; #@! TF.CreationDate,2025-10-25T01:57:36-05:00
; #@! TF.GenerationSoftware,Kicad,Pcbnew,9.0.4
; #@! TF.FileFunction,Plated,1,2,PTH
FMAT,2
INCH
; #@! TA.AperFunction,Plated,PTH,ViaDrill
T1C0.0118
; #@! TA.AperFunction,Plated,PTH,ViaDrill
T2C0.0157
; #@! TA.AperFunction,Plated,PTH,ViaDrill
T3C0.0236
; #@! TA.AperFunction,Plated,PTH,ComponentDrill
T4C0.0472
; #@! TA.AperFunction,Plated,PTH,ComponentDrill
T5C0.0701
; #@! TA.AperFunction,Plated,PTH,ComponentDrill
T6C0.1260
%
G90
G05
T1
X3.6575Y-4.2126
X3.7646Y-3.1598
X3.7992Y-4.2126
X3.8398Y-4.0531
X4.0232Y-4.5917
X4.0339Y-2.687
X4.1339Y-2.8583
X4.1445Y-4.5894
X4.2313Y-3.2628
X4.2343Y-3.437
X4.2402Y-4.0354
X4.2437Y-4.5909
X4.247Y-3.8031
X4.253Y-3.9183
X4.2559Y-3.5512
X4.2569Y-3.69
X4.3028Y-3.8094
X4.3098Y-3.1551
X4.311Y-3.7058
X4.3264Y-3.5449
X4.328Y-3.9232
X4.4291Y-4.5531
X4.4882Y-4.4547
X4.5512Y-4.6201
X4.5965Y-4.2815
X4.6004Y-3.9163
X4.6024Y-4.1004
X4.628Y-3.7579
X4.6457Y-4.5276
X4.6772Y-3.9724
X4.685Y-3.7795
X4.685Y-4.1535
X4.686Y-3.7156
X4.6874Y-4.6807
X4.689Y-4.3346
X4.8551Y-4.6768
X4.8898Y-2.4488
X4.9646Y-4.4291
X5.1024Y-2.9213
X5.1701Y-3.1197
X5.1949Y-4.8937
X5.1988Y-4.9961
X5.2461Y-3.7992
X5.2874Y-2.6102
X5.2953Y-3.9764
X5.2953Y-4.1535
X5.2953Y-4.3307
X5.2953Y-4.5177
X5.2953Y-4.6358
X5.3307Y-4.7087
X5.3346Y-3.878
X5.3819Y-4.9016
X5.3898Y-4.8602
X5.3982Y-4.7486
X5.4035Y-3.2638
X5.4085Y-3.4183
X5.4248Y-3.6575
X5.4289Y-4.4604
X5.4409Y-2.7756
X5.4547Y-4.5236
X5.4685Y-3.3701
X5.4776Y-3.4183
X5.4783Y-4.9035
X5.4921Y-3.6024
X5.5Y-3.748
X5.5Y-3.8307
X5.5Y-3.9754
X5.5157Y-4.8996
X5.561Y-4.8898
X5.5921Y-4.8951
X5.6457Y-4.3258
X5.6496Y-3.937
X5.6969Y-3.4094
X5.6988Y-3.6585
X5.7539Y-3.3061
X5.7854Y-4.8641
X5.7874Y-3.5
X5.8307Y-2.9213
X5.8366Y-3.9272
X5.8622Y-3.4252
X5.8858Y-3.6339
X5.8878Y-4.9518
X5.9008Y-2.811
X5.961Y-2.8531
X5.9969Y-5.0464
X6.003Y-3.4124
X6.0512Y-5.0413
X6.0531Y-3.937
X6.0984Y-4.9754
X6.105Y-4.9213
X6.1063Y-3.4124
X6.122Y-3.3701
X6.124Y-4.872
X6.1925Y-4.9764
X6.2441Y-4.1929
X6.2559Y-4.8681
X6.2707Y-4.9193
X6.3189Y-3.937
X6.3386Y-3.0748
X6.3622Y-3.3976
X6.435Y-3.1555
X6.4455Y-4.7185
X6.4459Y-4.9081
X6.4764Y-3.878
X6.5079Y-4.1722
X6.5083Y-4.2524
X6.5472Y-3.0315
X6.5736Y-4.9087
X6.5758Y-3.8622
X6.5762Y-4.7165
X6.5827Y-3.1496
X6.5984Y-3.6339
X6.622Y-3.0354
X6.6862Y-4.9091
X6.689Y-4.7181
X6.7795Y-3.185
X6.9272Y-2.9193
X6.9567Y-4.3386
X6.9803Y-3.9941
X7.0533Y-4.203
X7.0984Y-4.1303
X7.2624Y-4.1655
X7.2992Y-4.0709
X7.4736Y-4.9232
X7.5292Y-4.8425
X7.6035Y-4.9232
X8.0307Y-4.8386
X8.135Y-4.8327
X8.2433Y-4.8268
T2
X8.0797Y-4.1152
T3
X4.565Y-4.5374
X4.565Y-4.7323
X4.5669Y-3.811
X4.5669Y-3.998
X4.5669Y-4.1929
X4.5669Y-4.3602
X4.8071Y-2.4213
X5.3713Y-4.6736
X5.374Y-3.3307
X5.3988Y-4.6953
X5.5083Y-3.0547
X5.5882Y-2.4748
X5.6004Y-3.3268
X5.8386Y-3.3248
X6.0591Y-3.3268
X6.3386Y-3.3228
X6.9961Y-4.2352
X7.0482Y-3.748
X7.0531Y-4.0522
X7.3959Y-4.1228
X8.378Y-3.689
T4
X3.7778Y-3.5961
X3.7778Y-3.6945
X3.7778Y-3.7929
X3.7778Y-3.8913
X3.7778Y-3.9898
X3.7778Y-4.0882
X3.7992Y-4.6559
X3.8291Y-2.7165
X3.8762Y-3.5961
X3.8762Y-3.6945
X3.8762Y-3.7929
X3.8762Y-3.8913
X3.8762Y-3.9898
X3.8762Y-4.0882
X3.8976Y-4.6559
X3.9276Y-2.7165
X3.9961Y-4.6559
X4.0945Y-4.6559
X4.1437Y-2.7165
X4.1929Y-4.6559
X4.2421Y-2.7165
X4.2913Y-4.6559
X4.3898Y-4.6559
X5.1894Y-2.7157
X5.2878Y-2.7157
X5.3862Y-2.7157
X5.4846Y-2.7157
X5.7008Y-2.7157
X5.7992Y-2.7157
X5.8976Y-2.7157
X5.9961Y-2.7157
X6.2992Y-2.7165
X6.3976Y-2.7165
X6.4961Y-2.7165
X6.5945Y-2.7165
X7.5394Y-2.7165
X7.6378Y-2.7165
X7.8543Y-2.7165
X7.9528Y-2.7165
X8.1189Y-3.6575
X8.1189Y-3.7559
X8.1189Y-3.8543
X8.2071Y-4.1929
X8.2071Y-4.2913
X8.2173Y-3.6575
X8.2173Y-3.7559
X8.2173Y-3.8543
X8.2213Y-2.811
X8.2213Y-2.9094
X8.2213Y-3.1299
X8.2213Y-3.2283
X8.2213Y-3.3268
X8.2213Y-3.4252
T5
X4.4594Y-2.75
X4.4594Y-2.8839
X4.85Y-2.75
X4.85Y-2.8839
X7.2392Y-3.4636
X7.2392Y-3.5974
X7.6297Y-3.4636
X7.6297Y-3.5974
T6
X3.5433Y-2.4803
X3.5433Y-4.9213
X8.4646Y-2.4803
X8.4646Y-4.9213
M30
